<svg width="32" height="33" viewBox="0 0 32 33" fill="none" xmlns="http://www.w3.org/2000/svg">
<path d="M16 31.8657C7.43959 31.8657 0.5 24.9261 0.5 16.3657C0.5 7.80531 7.43959 0.865723 16 0.865723C24.5604 0.865723 31.5 7.80531 31.5 16.3657C31.5 24.9261 24.5604 31.8657 16 31.8657Z" fill="white"/>
<path d="M16 31.8657C7.43959 31.8657 0.5 24.9261 0.5 16.3657C0.5 7.80531 7.43959 0.865723 16 0.865723C24.5604 0.865723 31.5 7.80531 31.5 16.3657C31.5 24.9261 24.5604 31.8657 16 31.8657Z" stroke="#E0E4EB"/>
<path fill-rule="evenodd" clip-rule="evenodd" d="M17.4689 13.4187C17.5471 13.3411 17.6092 13.2487 17.6516 13.147C17.694 13.0452 17.7158 12.9361 17.7158 12.8259C17.7158 12.7157 17.694 12.6066 17.6516 12.5048C17.6092 12.4031 17.5471 12.3107 17.4689 12.2331C17.3124 12.0776 17.1008 11.9904 16.8803 11.9904C16.6597 11.9904 16.4482 12.0776 16.2917 12.2331L12.7436 15.7813C12.5881 15.9378 12.5008 16.1494 12.5008 16.3699C12.5008 16.5905 12.5881 16.8021 12.7436 16.9585L16.2917 20.4984C16.4481 20.6539 16.6597 20.7411 16.8803 20.7411C17.1008 20.7411 17.3124 20.6539 17.4689 20.4984C17.6244 20.342 17.7116 20.1304 17.7116 19.9098C17.7116 19.6892 17.6244 19.4776 17.4689 19.3212L14.5135 16.3658L17.4689 13.4187Z" fill="#080B11"/>
</svg>
