<svg width="32" height="33" viewBox="0 0 32 33" fill="none" xmlns="http://www.w3.org/2000/svg">
<path d="M16 31.8657C7.43959 31.8657 0.5 24.9261 0.5 16.3657C0.5 7.80531 7.43959 0.865723 16 0.865723C24.5604 0.865723 31.5 7.80531 31.5 16.3657C31.5 24.9261 24.5604 31.8657 16 31.8657Z" fill="white"/>
<path d="M16 31.8657C7.43959 31.8657 0.5 24.9261 0.5 16.3657C0.5 7.80531 7.43959 0.865723 16 0.865723C24.5604 0.865723 31.5 7.80531 31.5 16.3657C31.5 24.9261 24.5604 31.8657 16 31.8657Z" stroke="#E0E4EB"/>
<path fill-rule="evenodd" clip-rule="evenodd" d="M14.4969 19.3126C14.4187 19.3902 14.3566 19.4825 14.3142 19.5842C14.2718 19.686 14.25 19.7951 14.25 19.9053C14.25 20.0155 14.2718 20.1246 14.3142 20.2263C14.3566 20.328 14.4187 20.4204 14.4969 20.498C14.6533 20.6535 14.8649 20.7407 15.0855 20.7407C15.306 20.7407 15.5176 20.6535 15.674 20.498L19.2218 16.9501C19.3773 16.7937 19.4645 16.5821 19.4645 16.3615C19.4645 16.141 19.3773 15.9294 19.2218 15.773L15.674 12.2335C15.5176 12.078 15.306 11.9907 15.0855 11.9907C14.8649 11.9907 14.6533 12.078 14.4969 12.2335C14.3415 12.3899 14.2542 12.6015 14.2542 12.822C14.2542 13.0425 14.3415 13.2541 14.4969 13.4105L17.4521 16.3657L14.4969 19.3126Z" fill="#080B11"/>
</svg>
