<svg width="64" height="30" viewBox="0 0 64 30" fill="none" xmlns="http://www.w3.org/2000/svg">
<path d="M16.495 4.80763C17.5224 3.5135 18.2196 1.7755 18.0357 0C16.5321 0.075002 14.6963 0.999571 13.6332 2.29438C12.6792 3.40373 11.8344 5.21468 12.0547 6.91586C13.7437 7.06314 15.4299 6.06561 16.495 4.80763ZM18.0169 7.24792C15.5646 7.10064 13.4796 8.64909 12.3087 8.64909C11.1365 8.64909 9.34382 7.32155 7.40428 7.35769C4.87997 7.39519 2.53756 8.8325 1.25621 11.118C-1.3779 15.6918 0.560968 22.4754 3.123 26.2002C4.3673 28.0425 5.86692 30.0717 7.84285 29.9981C9.7103 29.9251 10.4419 28.781 12.7116 28.781C14.9792 28.781 15.6381 29.9987 17.614 29.9619C19.664 29.9251 20.9447 28.1182 22.189 26.2732C23.6172 24.1731 24.2013 22.1447 24.2377 22.0335C24.2013 21.9967 20.2858 20.4844 20.2495 15.9488C20.2124 12.151 23.3235 10.3455 23.4697 10.233C21.7134 7.61679 18.9688 7.32155 18.0169 7.24792ZM36.998 2.05846V7.4136H41.2523V10.8412H36.9986V23.524C36.9986 25.4741 37.8495 26.3946 39.7001 26.3946C40.1683 26.3946 40.9552 26.3311 41.2314 26.2882V29.7151C40.7639 29.8446 39.7217 29.9081 38.7644 29.9081C34.4454 29.9081 32.7436 28.2157 32.7436 23.9099V10.8412H29.5099V7.4136H32.7436V2.05914H36.9986L36.998 2.05846ZM55.9582 29.7792H51.4694L43.4068 7.4136H47.874L53.6818 25.4734H53.7667L59.5746 7.4136H64L55.9582 29.7792Z" fill="#676F7E"/>
</svg>
