<svg width="62" height="48" viewBox="0 0 62 48" fill="none" xmlns="http://www.w3.org/2000/svg">
<path fill-rule="evenodd" clip-rule="evenodd" d="M31.6076 0.319661C37.1068 4.24968 45.142 6.6394 51.3607 6.78054L52.0119 6.82952V14.986H62V32.7433H55.8619L55.2608 33.3517L53.76 34.6716C47.0149 40.6053 37.6338 47.73 31.2479 48H31.1926C26.2938 47.8402 18.0297 43.0066 8.52498 34.7579L7.08724 33.5109L6.34885 32.7497H0V14.9983H10.1989V6.82372L10.8625 6.79279C18.9412 6.41835 25.0792 4.42176 30.7645 0.306771L31.1678 0L31.6076 0.319016V0.319661ZM31.1646 0.871977C36.6827 5.11006 44.1843 6.92813 51.2956 7.48109V13.2479C49.7889 13.1686 48.5613 14.7347 48.5613 15.6866H61.2837V32.0486H49.4916C49.7707 33.5656 51.8102 34.2353 53.2798 34.156C45.4432 41.0532 36.7881 47.072 31.2017 47.3117C26.1052 47.1461 17.493 41.6429 8.96867 34.2417C12.5025 34.2965 12.8187 32.055 12.8187 32.055H0.691549V15.6982H13.3762C13.3144 14.5072 12.2052 13.3897 10.8846 13.2601V7.49333C18.448 7.13694 24.9771 5.34336 31.1646 0.871977ZM49.8312 12.3527V8.7346C43.0179 8.22546 34.9886 5.80545 31.1568 2.70358C27.1591 5.76807 19.3588 8.42718 12.4277 8.81387V12.2534C13.6924 12.954 14.7275 13.9059 14.9883 15.6995H16.1912C16.1543 14.8458 15.8906 14.017 15.4268 13.2966C14.9631 12.5763 14.3156 11.9899 13.5499 11.5967V9.79669C19.6815 9.64331 27.1467 6.79343 31.1451 4.12787C35.5409 7.06347 42.6152 9.64975 48.6849 9.79669V11.5903C47.2778 12.3398 46.0007 13.4393 45.8888 15.6995H47.0357C47.0357 14.5072 48.4436 12.6408 49.8319 12.352L49.8312 12.3527ZM33.8735 7.21621L33.8612 8.74491L31.9082 7.79302V15.6982H30.3768V7.79302L28.4674 8.73266L28.4797 7.22781C28.4797 7.22781 30.6871 6.12898 31.1704 5.77838C31.6792 6.14122 33.8735 7.21621 33.8735 7.21621ZM21.3007 15.3643L21.2994 15.6995L22.6754 15.693V9.63235C22.1927 9.71586 21.7147 9.8245 21.2435 9.95781L20.0966 12.7465L19.0049 10.4064C18.8195 10.4347 18.6718 10.4644 18.4897 10.5018C18.2038 10.561 17.9168 10.6152 17.629 10.6642V15.7007H19.0179L19.0609 13.6984C19.3913 14.1198 19.6737 14.6941 19.9398 15.2361C20.0035 15.365 20.0653 15.4919 20.1271 15.6144C20.254 15.3605 20.3835 15.073 20.5162 14.7766C20.7152 14.3332 20.9241 13.8672 21.1505 13.4586C21.3112 13.6391 21.3053 14.6129 21.3001 15.3656L21.3007 15.3643ZM28.3268 9.38487V14.5136C28.3145 15.673 27.9267 15.675 26.0206 15.6859L25.8592 15.6866H25.7987C24.1658 15.6995 23.6265 15.7033 23.6083 14.0528V10.552C23.6343 9.42354 23.89 9.30367 24.9049 8.82805C25.0825 8.74426 25.2841 8.65017 25.5118 8.53739C27.8864 7.39473 28.2585 7.78206 28.3268 9.38487ZM26.9932 10.0055C26.9932 9.18831 25.2451 10.1834 25.1339 10.3C24.819 10.6171 24.8535 12.4681 24.8736 13.5508L24.8795 13.9117C24.8795 14.1269 24.9914 14.3783 25.2633 14.3783C25.4052 14.3783 25.5678 14.3796 25.735 14.3809H25.7382C26.0915 14.3841 26.4669 14.3873 26.7141 14.3783C26.8572 14.3912 26.9873 14.2861 27.0003 14.145C27.0003 14.1205 27.0003 14.0896 26.9938 14.0651V10.0049L26.9932 10.0055ZM38.8731 14.3725V10.1479C38.8731 9.27402 38.1542 9.01108 37.248 8.67853C37.0893 8.62052 36.926 8.56123 36.7588 8.4955C36.6548 8.45431 36.5512 8.41242 36.4478 8.36982C35.3184 7.90902 34.0121 7.37539 34.0121 9.12193V14.3731C34.0121 15.6943 34.7876 15.6943 36.5421 15.6943C38.4021 15.6943 38.8731 15.6937 38.8731 14.3725ZM35.4199 10.2768C35.4199 9.57628 35.8539 9.68713 36.4986 9.87725C36.561 9.8953 36.6287 9.91077 36.6976 9.92623C37.0821 10.0132 37.5271 10.1131 37.5219 10.7434V13.8575C37.5271 14.4028 37.0639 14.3912 36.6775 14.3815L36.5356 14.3796L36.3873 14.3809C35.8656 14.3892 35.4199 14.3963 35.4199 13.458V10.2768ZM44.3593 10.8401C45.0294 11.5709 44.8739 13.4689 44.291 13.6655C44.9051 14.1198 44.7685 15.7046 44.7685 15.7046H43.4544C43.4544 14.1256 43.1441 14.0954 42.3751 14.1012C42.0466 14.0941 41.9653 14.0954 41.8208 14.0979C41.7206 14.0992 41.5892 14.1012 41.3212 14.1012V15.7046H39.994V9.71613C40.3824 9.79798 40.7851 9.87725 41.1826 9.95652C42.6659 10.2504 44.0757 10.5308 44.3593 10.8401ZM41.3342 11.3744V12.7684L42.0127 12.8012C42.3849 12.8186 42.6158 12.8296 43.0205 12.8547C43.5038 12.8547 43.3919 11.9144 43.256 11.743C43.1564 11.5948 42.0661 11.4543 41.3342 11.3744ZM2.24314 17.2269H59.8174V30.4567H2.24379L2.24314 17.2269ZM15.797 32.0498C15.8009 32.6409 15.6689 33.2251 15.4112 33.7581C15.1534 34.2912 14.7765 34.7592 14.3091 35.1266C19.9326 40.1142 27.5156 44.3581 31.2472 44.6043C35.0354 44.3581 42.4135 39.8319 48.0558 35.0898C46.9212 34.0948 46.5986 33.2531 46.5921 32.0498H47.7084C47.808 33.4935 49.3517 34.66 49.9965 34.9307C41.72 41.7041 36.481 45.0148 31.1731 45.7089C25.655 44.9471 20.3106 41.6738 12.2937 34.9912C13.4101 34.4995 14.5381 33.351 14.5323 32.0428L15.797 32.0498ZM53.1341 33.4194C53.1754 33.3793 53.2081 33.3315 53.2305 33.2788C53.2529 33.2261 53.2644 33.1695 53.2644 33.1123C53.2644 33.0551 53.2529 32.9984 53.2305 32.9457C53.2081 32.893 53.1754 32.8452 53.1341 32.8052C53.0926 32.7641 53.0433 32.7316 52.989 32.7094C52.9348 32.6873 52.8766 32.676 52.8179 32.6763C52.7029 32.6783 52.5934 32.7253 52.5132 32.807C52.433 32.8888 52.3887 32.9986 52.3899 33.1126C52.3877 33.1694 52.3976 33.2261 52.4189 33.2789C52.4402 33.3318 52.4724 33.3796 52.5135 33.4194C52.5539 33.4603 52.6022 33.4929 52.6555 33.5151C52.7088 33.5373 52.766 33.5488 52.8238 33.5488C52.8816 33.5488 52.9389 33.5373 52.9922 33.5151C53.0454 33.4929 53.0937 33.4603 53.1341 33.4194ZM52.4706 32.762C52.5171 32.7152 52.5727 32.6781 52.6339 32.6527C52.6951 32.6274 52.7607 32.6144 52.8271 32.6144C52.8934 32.6144 52.9591 32.6274 53.0203 32.6527C53.0815 32.6781 53.137 32.7152 53.1836 32.762C53.2324 32.8063 53.271 32.8606 53.2968 32.9211C53.3225 32.9817 53.3347 33.047 53.3325 33.1126C53.3325 33.2479 53.2766 33.3768 53.1836 33.469C53.137 33.5157 53.0815 33.5529 53.0203 33.5782C52.9591 33.6036 52.8934 33.6166 52.8271 33.6166C52.7607 33.6166 52.6951 33.6036 52.6339 33.5782C52.5727 33.5529 52.5171 33.5157 52.4706 33.469C52.2721 33.2782 52.2786 32.9586 52.4706 32.762ZM52.8114 33.1003C52.8427 33.1003 52.8739 33.1003 52.9045 33.0874C52.9175 33.0816 52.9292 33.0758 52.9357 33.0636C52.9443 33.0532 52.9506 33.0412 52.9543 33.0283C52.9581 33.0155 52.9591 33.0019 52.9573 32.9887C52.9555 32.9754 52.951 32.9626 52.9441 32.9511C52.9371 32.9396 52.9278 32.9296 52.9168 32.9218C52.8791 32.9095 52.8395 32.9034 52.7997 32.9038H52.7126V33.1003H52.8114ZM52.7126 33.3891H52.6254L52.6072 33.3762V32.8239H52.8056C52.855 32.8174 52.9045 32.8239 52.9539 32.8425C52.9817 32.8539 53.005 32.8737 53.0207 32.8991C53.0364 32.9244 53.0435 32.954 53.0411 32.9837C53.0416 33.0052 53.0367 33.0265 53.027 33.0457C53.0172 33.0649 53.0029 33.0815 52.9851 33.0939C52.9595 33.1057 52.9324 33.114 52.9045 33.1184C52.9399 33.1222 52.9727 33.1387 52.9967 33.1648C53.0207 33.1909 53.0342 33.2249 53.0346 33.2602V33.3891H52.9416V33.3149C52.9442 33.2921 52.941 33.2689 52.9324 33.2476C52.9238 33.2262 52.9099 33.2073 52.8921 33.1925C52.8585 33.1798 52.8227 33.1735 52.7867 33.1738H52.7126V33.3891ZM58.6951 18.3457H3.50979V29.4139H58.6958V18.3457H58.6951ZM49.0616 22.5967V20.9623C49.0681 20.158 48.5841 19.5315 47.4371 19.5186C45.6546 19.5019 45.6722 21.008 45.6865 22.1629L45.6884 22.4491C45.6884 23.517 46.4171 23.9887 46.9896 24.3587C47.1112 24.4379 47.2264 24.512 47.3252 24.5862C47.6102 24.795 47.8587 25.0592 47.8587 25.9009C47.8587 26.6375 47.741 26.896 47.4248 26.896C46.9382 26.896 46.9434 26.441 46.9466 26.1999V24.8871H45.6761C45.6761 27.4857 45.8868 28.1733 47.4248 28.1733C48.7324 28.1733 49.1358 27.2582 49.1358 26.0665C49.1293 24.4515 48.8625 24.0828 48.0942 23.5118C48.0124 23.4521 47.9293 23.3941 47.845 23.3378C47.3636 23.0104 46.9473 22.7262 46.9473 21.7917C46.9479 21.7408 46.9473 21.6886 46.9466 21.6344C46.9421 21.2974 46.9375 20.932 47.3064 20.932C47.8028 20.901 47.8028 21.57 47.8028 22.5967H49.0616ZM6.4614 22.9157H7.37869V19.7345H8.63753V28.0934H7.37219V24.6113H6.47376V28.0934H5.19605V19.7345H6.45489C6.4614 19.7345 6.4614 22.9157 6.4614 22.9157ZM19.6691 26.6987H18.4103L18.4038 19.7345H17.0591V28.0934H19.6691V26.6994V26.6987ZM22.5648 21.0551H21.2877V23.0014H22.5524V24.4637H21.2877V26.6871H22.5466V28.0934H19.9489V19.7345H22.5589L22.5648 21.0551ZM24.106 20.1115C24.0825 19.9858 24.0589 19.8602 24.0351 19.7345L22.7209 19.741C22.9519 20.8546 23.2479 21.949 23.5458 23.0504C23.6883 23.5763 23.8308 24.1034 23.9674 24.6358V28.0193H25.238V24.6603L25.4422 23.9385C25.8306 22.5689 26.2073 21.2413 26.5027 19.7403H25.2568C25.1157 20.2121 25.0272 20.6523 24.9367 21.0995C24.8505 21.5597 24.7442 22.016 24.618 22.4671C24.3896 21.6293 24.2472 20.8688 24.106 20.1115ZM37.4627 19.6649C37.6182 21.2864 37.7854 22.9943 37.9591 24.6152C37.9591 24.6152 38.3624 21.1266 38.5602 19.6656H39.8125L38.6409 28.0244H37.2955L36.1791 19.6656H37.4633L37.4627 19.6649ZM40.0571 28.0238H41.3349L41.3283 19.6649H40.0571V28.0238ZM55.0377 19.6649C55.1535 20.1966 55.2654 20.7335 55.3766 21.2684C55.5334 22.0205 55.6889 22.77 55.8561 23.4976L55.8066 19.6649H57.0772V27.9503H55.5894C55.3115 26.4189 55.0222 24.8895 54.7215 23.3623L54.7586 27.951H53.4191V19.6643H55.0377V19.6649ZM52.9312 26.6143V21.2523C52.9312 19.7107 51.9703 19.4529 51.3067 19.4587C50.5878 19.4651 49.5521 19.6121 49.5521 21.2213V26.5963C49.5521 27.8362 50.4636 28.2236 51.1954 28.2358C52.0757 28.2481 52.9312 27.4927 52.9312 26.6143ZM50.7485 26.2515V21.2768C50.755 20.6993 51.6476 20.718 51.6352 21.2832V26.3746C51.6352 27.1673 50.7492 26.9707 50.7492 26.2521L50.7485 26.2515ZM31.3682 19.7345C32.0253 19.7345 32.4781 20.1947 32.4846 21.1717C32.4846 22.9466 32.4846 25.0966 32.4976 26.6072C32.5067 26.9915 32.3616 27.3638 32.0942 27.6423C31.8268 27.9209 31.4588 28.0831 31.0709 28.0934H29.1739V19.7345H31.3682ZM30.4444 20.9996V26.6871H30.8972C30.9437 26.6816 30.9886 26.6671 31.0294 26.6443C31.0702 26.6216 31.1061 26.591 31.1349 26.5545C31.1637 26.518 31.185 26.4761 31.1975 26.4314C31.2099 26.3867 31.2133 26.34 31.2075 26.294V26.2876C31.2054 24.656 31.2011 23.0244 31.1945 21.3928C31.1945 20.8276 30.4444 20.9996 30.4444 20.9996ZM45.2578 21.1388C45.2578 20.0336 44.5265 19.6649 43.8877 19.6649H41.8852V28.0238H43.6339C44.7126 28.0238 45.2578 27.5572 45.2578 26.6607V21.1388ZM43.2306 20.9919H43.6463C43.7611 21.0048 43.8673 21.0586 43.9449 21.1435C44.0225 21.2283 44.0662 21.3382 44.0679 21.4527V26.2863C44.0614 26.6549 43.9748 26.6859 43.2306 26.6859V20.9919ZM15.2037 19.7345C16.4313 19.7345 16.5738 21.1653 16.5738 22.0437V22.0952C16.5751 22.5045 16.577 23.2192 15.9414 23.8495C16.3565 24.2182 16.5738 24.5133 16.5796 25.422V28.1056H15.7488C15.6005 28.1056 15.2349 27.9832 15.2408 27.737V25.4588C15.2408 24.9432 14.9304 24.8878 14.639 24.8878H14.4158V28.0934H13.0523L13.0705 19.7345H15.2037ZM14.41 21.0609V23.2779H14.9057C15.0358 23.2779 15.1855 23.1799 15.1789 22.848C15.1874 22.5863 15.1842 22.2319 15.1809 21.918V21.9167L15.1789 21.5275C15.1848 21.0705 14.9103 21.0673 14.421 21.0609H14.41ZM35.3497 28.018H36.5402L35.4928 19.6591H33.6816C33.5535 20.93 33.3824 22.2177 33.2113 23.5086C33.0115 25.0167 32.8112 26.528 32.6778 28.018H33.8807L34.1279 25.9976H35.0276C35.081 26.294 35.122 26.5853 35.1623 26.874C35.2157 27.2556 35.2683 27.6339 35.3497 28.018ZM34.2769 24.4373L34.5566 21.4521C34.7108 22.4471 34.8103 23.4422 34.8474 24.4373H34.2769ZM11.7928 19.7345C12.1213 22.4368 12.4128 25.1514 12.7166 28.0934H11.5442C11.4694 27.5308 11.3946 26.9462 11.3354 26.4874L11.284 26.091H10.4162L10.1807 28.0934H8.97713L9.15733 26.4081C9.39153 24.2143 9.62769 22.0076 9.83977 19.7345H11.7928ZM10.7694 21.4295L10.6204 24.4457H11.1103L11.0869 24.1769C11.0049 23.2373 10.934 22.4239 10.7694 21.4295ZM26.2815 23.4235H28.6001V24.4611H26.2815V23.4235ZM21.3209 32.0563H23.013L23.8562 34.3532H23.9622L24.9907 32.0563H26.6777L24.5386 36.1835V40.6059L22.9883 39.7152V36.2022L21.3209 32.0563ZM21.438 38.8246L17.7988 36.4477C17.6584 36.3489 17.5439 36.2181 17.4651 36.0664C17.3864 35.9147 17.3455 35.7464 17.346 35.5758V33.1493C17.359 32.5287 17.8794 32.0434 18.4994 32.0556H20.8369V33.3884H19.2059C19.1341 33.3885 19.065 33.416 19.013 33.4652C18.961 33.5144 18.9302 33.5815 18.9268 33.6527V35.3296C18.9325 35.3811 18.9523 35.43 18.9841 35.4712C19.0158 35.5123 19.0584 35.544 19.107 35.5629L19.2124 35.6486L21.3886 36.9015L21.438 37.1225V38.8246ZM30.8439 41.7183L29.3619 41.1711L28.8043 40.9746C28.7099 40.9401 28.6281 40.8784 28.5694 40.7974C28.5108 40.7164 28.4779 40.6198 28.4752 40.5202V33.8808C28.4765 33.8154 28.4909 33.7509 28.5176 33.691C28.5442 33.6311 28.5826 33.5771 28.6304 33.5319C28.6782 33.4868 28.7346 33.4515 28.7963 33.4281C28.858 33.4047 28.9237 33.3936 28.9898 33.3955H30.8439V32.0627H28.0289C27.7297 32.0563 27.4402 32.1679 27.2241 32.3728C27.0079 32.5778 26.8827 32.8594 26.8761 33.1558V41.0055C26.8761 41.3554 27.0498 41.6809 27.3406 41.8839C27.5826 42.0805 28.2273 42.4124 30.825 43.247V41.7299H30.8439V41.7183ZM31.6076 32.0563H33.195L33.2015 41.3239L35.3217 40.6613V42.1108C34.136 42.6221 32.8871 42.9753 31.6076 43.1613V32.0556V32.0563ZM39.4495 33.3891V32.0563H36.8395C36.5402 32.0499 36.2506 32.1615 36.0344 32.3666C35.8182 32.5717 35.6931 32.8535 35.6867 33.15V40.2927C35.7172 41.804 37.0815 41.1466 37.1621 41.0912L39.4749 39.6785V38.0757L37.7945 39.0089C37.1439 39.3775 37.2675 38.5423 37.2675 38.5423V36.5895H38.9349V35.3057H37.2688V34.0767L37.2623 33.8621C37.2635 33.798 37.2774 33.7347 37.3033 33.6759C37.3292 33.6171 37.3666 33.564 37.4132 33.5195C37.4599 33.475 37.5149 33.4401 37.5752 33.4167C37.6355 33.3934 37.6998 33.382 37.7646 33.3833H39.445V33.3897H39.4515L39.4495 33.3891ZM41.8241 33.6211C41.8258 33.5576 41.8528 33.4974 41.8993 33.4536C41.9458 33.4099 42.0079 33.3862 42.0719 33.3878L44.5584 33.3813V32.0486H41.1917C40.6778 32.0486 40.2614 32.4049 40.2614 32.8348V34.8069C40.2744 35.2548 40.6524 35.6048 41.1052 35.5867H42.5124C42.5124 35.5867 43.9072 35.5493 42.0661 36.5812L40.2556 37.5949L40.2686 39.1855C40.2686 39.1855 44.5649 36.8396 44.6703 36.1577V34.9848C44.6598 34.7601 44.56 34.5487 44.3926 34.3968C44.2252 34.2449 44.0039 34.1648 43.7771 34.174H42.0726C42.0086 34.1746 41.9469 34.1505 41.9006 34.1068C41.8542 34.0632 41.8268 34.0034 41.8241 33.9401V33.6211Z" fill="#676F7E"/>
</svg>
