<svg width="66" height="32" viewBox="0 0 66 32" fill="none" xmlns="http://www.w3.org/2000/svg">
<path d="M30.6143 12.2065C31.0099 12.2471 32.5231 12.1111 32.8498 13.6115C34.2683 12.2471 33.9958 10.4336 32.9863 9.72398C31.2824 8.52395 29.456 9.61442 29.2917 10.8563C29.1822 11.6471 29.6461 12.1247 30.6143 12.2065ZM65.64 10.2421C64.6994 10.2151 63.295 11.7696 62.1638 11.7696C61.4139 11.7696 61.3591 11.1973 61.8094 10.2293C63.4722 6.65495 61.4551 6.76452 61.0183 7.10545C61.0183 7.10545 62.4633 4.55459 59.9141 4.55459C56.7639 4.56812 53.9693 7.21437 52.5108 11.1425C51.9793 12.4791 50.8061 15.3439 49.5654 15.6983C48.38 16.0257 48.38 14.4706 47.6295 14.1838C52.6609 10.7874 52.715 8.04639 51.9245 7.11898C51.2159 6.30049 48.8297 6.04141 45.8843 9.0969C46.6071 6.38234 48.6525 4.71829 49.1428 2.00437C49.4024 0.394452 48.2157 -1.25607 45.9796 1.40371C44.4664 3.2044 43.6759 6.50544 42.2032 10.7062C41.3309 13.2706 39.5857 17.8664 38.0312 17.8806C37.3497 17.8806 37.159 17.2805 37.3767 15.603C37.7723 12.329 40.4174 8.5652 41.3309 5.85064C42.0125 4.04996 41.3309 2.97238 40.5534 2.79515C39.5033 2.60438 38.0177 3.58593 36.9264 6.30113C36.0541 8.16884 35.3455 10.7468 34.8134 13.6798C34.3231 16.1211 32.4001 20.9083 30.5325 20.6628C29.8367 20.5674 30.546 18.8215 31.4054 17.0621C32.1276 15.5752 32.7138 13.7752 31.1735 13.7752C28.8008 13.7752 27.0698 18.6578 26.7831 22.2998C26.6466 24.0727 26.5925 26.119 27.9556 26.119C29.6461 26.119 31.8274 24.346 33.8728 21.2634C34.0229 22.9816 36.2049 25.2592 40.431 19.1354C40.4992 20.0634 40.7035 21.4542 41.4128 21.4948C41.4128 21.4948 42.0673 21.6727 42.7353 20.1582C43.4028 18.6443 44.1397 16.7211 44.2892 16.3531C44.6435 15.4934 45.3116 15.3439 45.3799 16.7894C45.4482 18.2898 45.8437 19.3944 47.0568 19.3809C49.443 19.3674 51.5148 17.1852 52.101 16.3531C52.4425 17.6485 55.3737 18.099 58.5639 14.2392C58.7004 15.262 59.6004 16.7482 63.6087 13.625C66.145 11.7019 66.3628 10.2699 65.64 10.2421ZM45.4211 12.7518C45.3258 12.7659 45.1621 12.6699 45.2298 12.5069C45.5442 11.6945 46.0548 10.9727 46.716 10.4058C47.2893 9.91475 47.9162 9.61506 48.3794 9.61506C48.8155 9.61506 49.0751 9.87415 49.0474 10.3111C49.0345 10.6514 48.8155 11.0742 48.4206 11.4428C47.0162 12.7518 45.5435 12.7518 45.4211 12.7518ZM59.0825 8.55102C57.7051 10.6791 58.196 10.924 57.2013 12.4521C56.396 13.6798 55.2783 13.993 54.8557 13.366C54.4331 12.7247 54.8557 11.3197 55.7963 10.2151C56.7368 9.12397 59.7099 7.58237 59.0825 8.55102ZM24.261 22.6136C24.6424 15.4663 28.5283 9.53321 28.6507 7.0236C28.7055 6.01434 28.174 5.22292 26.9603 5.27705C24.9291 5.37308 21.2886 8.27841 19.4616 11.9474C18.4527 8.86489 16.0124 10.6926 14.867 12.0428C15.0854 6.24571 13.3125 5.75526 12.2766 5.79586C9.04516 5.94602 5.67782 10.2834 3.85017 13.4343C2.15973 16.3531 -2.13465 25.0279 1.28745 25.546C2.13267 25.6685 2.99142 24.714 3.57766 22.477C5.81375 14.0478 8.47245 12.1247 9.56312 12.2065C12.4267 12.4244 8.73207 23.0912 7.4636 26.8556C6.75496 28.86 6.15454 32.1069 8.44539 31.9973C10.9952 31.8884 12.0724 25.4506 12.6857 21.9453C13.3814 18.1126 14.349 16.8713 15.3308 16.9531C16.4756 17.0891 15.9989 19.3944 15.2348 21.5902C14.5533 23.8407 12.2083 29.324 14.9623 29.5695C17.7434 29.6649 17.621 24.6322 18.3844 21.4542C19.544 16.6663 20.8389 13.4478 22.2433 13.7069C23.9608 14.0749 19.9525 20.3496 19.6793 25.314C19.4751 29.1745 21.2203 31.9702 23.7431 30.8791C26.4011 29.6243 24.0562 26.4734 24.261 22.6136Z" fill="#676F7E"/>
</svg>
