<svg width="90" height="24" viewBox="0 0 90 24" fill="none" xmlns="http://www.w3.org/2000/svg">
<path d="M69.5043 21.7775C70.7712 21.8717 72.0325 21.978 73.2945 22.0908V0H69.5043V21.7775ZM8.539 13.5841L3.60114 0H0V23.9992C1.26125 23.8236 2.5225 23.648 3.79024 23.4852V10.4352L8.17946 22.9471C9.56206 22.7908 10.9453 22.6405 12.3292 22.496V0.00161112H8.539V13.5841ZM15.9742 22.1529C19.4682 21.8403 22.9744 21.5769 26.5 21.3771V17.6715C24.2486 17.8028 22.0037 17.9535 19.7645 18.1283V12.52C21.2335 12.5071 23.17 12.4636 24.8857 12.4821V8.77656C23.5165 8.77011 21.3163 8.79509 19.7645 8.81442V3.74424H26.5V0H15.9742V22.1529ZM28.9276 3.74424H32.8948V21.0766C34.1579 21.0274 35.4213 20.9877 36.685 20.9574V3.74424H40.6514V0H28.9276V3.74424ZM43.0797 20.8511H46.87V12.2944H52.0099V8.58886H46.87V3.74424H53.6624V0H43.0797V20.8511ZM89.9935 0.00080556H85.8315L83.0883 6.31638L80.6226 0.00080556H76.5231L80.931 11.2802L76.1198 22.347C77.4508 22.4783 78.7745 22.6161 80.1048 22.7602L82.9057 16.3254L85.6741 23.4176C87.118 23.5988 88.5561 23.793 89.9935 24H90L85.0621 11.3616L89.9935 0.00080556ZM59.8802 0.00080556H56.0899V21.0388C59.5336 21.158 62.9643 21.3272 66.382 21.5519V17.8463C64.2163 17.7033 62.0492 17.5825 59.881 17.4838V0L59.8802 0.00080556Z" fill="#676F7E"/>
</svg>
