<svg width="52" height="52" viewBox="0 0 52 52" fill="none" xmlns="http://www.w3.org/2000/svg">
<path fill-rule="evenodd" clip-rule="evenodd" d="M0 52L52 0V52H0ZM45.3029 12.2254C45.3838 12.145 45.4299 12.1067 45.5835 11.9901L46.3983 12.8048C46.237 12.9292 46.1609 12.9969 46.0632 13.0946C45.7435 13.4143 45.6952 13.804 45.9096 14.1349C45.9543 14.2019 46.0109 14.2725 46.0813 14.3429L47.5022 15.7638L46.6336 16.633L44.7603 14.7507C44.4532 14.439 44.1363 14.137 43.8101 13.8451L44.5613 13.0946L45.1129 13.5833L45.1311 13.5652C44.8651 13.0101 45.032 12.497 45.3029 12.2254ZM42.2168 15.3023C42.6147 14.905 43.0379 14.7493 43.4477 14.7598C43.9749 14.7731 44.4783 15.0663 44.8686 15.4566C45.0208 15.6081 45.1311 15.7512 45.1856 15.8364L43.3842 17.628C43.7724 17.9645 44.2989 17.7816 44.7059 17.3752C45.0006 17.0799 45.2016 16.8027 45.3573 16.4885L46.0632 16.9584C45.8914 17.3669 45.5975 17.7774 45.2219 18.153C44.2723 19.1026 43.1817 19.0907 42.3076 18.2165C41.5954 17.5044 41.2477 16.2714 42.2168 15.3023ZM43.8101 16.0082C43.6796 15.8762 43.4512 15.7275 43.2034 15.7282C43.1184 15.7286 43.0343 15.7465 42.9565 15.7807C42.8787 15.815 42.8087 15.8648 42.751 15.9272C42.3823 16.2951 42.5701 16.7838 42.7781 17.0401L43.8101 16.0082ZM39.8639 17.8004L40.6152 17.0401C40.7827 17.2342 41.0117 17.482 41.43 17.8996L42.9953 19.4656C43.5336 20.0039 43.8646 20.5499 43.8282 21.1482C43.7871 21.7222 43.4443 22.2207 43.0316 22.6326C42.6616 23.0027 42.2 23.3085 41.8097 23.4202L41.321 22.5879C41.706 22.476 42.0573 22.2707 42.3438 21.9903C42.7558 21.5784 42.8529 21.0421 42.3348 20.5241L42.1533 20.3432L42.1449 20.3523C42.2098 20.7468 42.0695 21.1518 41.7469 21.4743C41.0557 22.1662 39.9973 22.0964 39.1943 21.2935C38.2901 20.3893 38.2978 19.2304 38.9862 18.5426C39.3717 18.1572 39.7808 18.0832 40.1536 18.1711L40.1718 18.1621L39.8639 17.8004ZM40.6877 18.9315C40.5548 18.8503 40.3998 18.8125 40.2444 18.8232C40.0888 18.838 39.9439 18.9087 39.8366 19.0222C39.5197 19.3392 39.5545 19.8796 40.0636 20.3886C40.4804 20.8061 41.0131 20.9227 41.3754 20.5604C41.4808 20.4556 41.5486 20.3191 41.5683 20.1719C41.5881 20.0247 41.5585 19.875 41.4844 19.7463C41.4257 19.6533 41.3556 19.5682 41.2756 19.4928L40.8686 19.076C40.8141 19.0207 40.754 18.9721 40.6877 18.9315ZM37.4481 20.0807C37.5283 20.0004 37.5675 19.969 37.6471 19.9181L38.4709 20.7321C38.3758 20.7953 38.2876 20.8683 38.2077 20.95C37.8872 21.2697 37.8307 21.6586 38.0451 21.9903C38.0897 22.0566 38.1554 22.1279 38.2266 22.1983L39.6468 23.6192L38.7691 24.4975L36.8958 22.6054C36.4839 22.1942 36.2115 21.9351 35.9546 21.7096L36.6968 20.9584L37.2484 21.4471L37.2763 21.4206C37.0096 20.8662 37.1765 20.3523 37.4481 20.0807ZM34.6692 22.9852L35.5476 22.1083L37.4572 24.0178C37.8217 24.3823 38.126 24.6741 38.3711 24.8954L37.6198 25.6467L37.1855 25.2934L37.1674 25.3116C37.2316 25.5943 37.254 26.1389 36.7512 26.6423C36.1808 27.2121 35.4044 27.2777 34.5429 26.4154L32.8951 24.7593L33.7735 23.8907L35.276 25.3932C35.6858 25.8038 36.0635 25.9176 36.3707 25.6097C36.6081 25.3737 36.5837 25.0756 36.4972 24.8766C36.4609 24.7949 36.4086 24.7213 36.3436 24.6601L34.6692 22.9852ZM31.3842 26.1536C31.6788 25.8582 32.044 25.6984 32.4343 25.6914C32.9356 25.6837 33.4746 25.9197 33.9542 26.4063C34.9646 27.4166 34.8326 28.5602 34.1896 29.2033C33.8621 29.5307 33.423 29.7297 32.8958 29.5922L32.8868 29.6013L33.2394 30.0271L32.4971 30.7686C32.324 30.571 32.0014 30.2269 31.683 29.9092L28.6333 26.8595L29.5019 25.9902L30.9227 27.402L30.9317 27.3929C30.8571 26.9858 30.9946 26.5417 31.3842 26.1536ZM33.1039 27.3301C32.8316 27.0577 32.5209 26.8972 32.2256 26.9132C32.0361 26.9263 31.8586 27.0103 31.7284 27.1485C31.4883 27.3894 31.4485 27.7804 31.6467 28.0897C31.6851 28.1505 31.7354 28.2153 31.7913 28.2712L32.199 28.6873C32.2548 28.7432 32.3156 28.7879 32.3708 28.8228C32.6612 28.9987 33.0481 28.9785 33.3028 28.7236C33.6729 28.3536 33.608 27.8342 33.1039 27.3301ZM28.3526 29.1489C28.7121 28.7893 29.1095 28.5525 29.3838 28.452L29.8188 29.2214C29.6142 29.2933 29.2547 29.4686 28.9949 29.7276C28.7625 29.9608 28.6996 30.1934 28.8413 30.3344C28.9761 30.4691 29.1877 30.4014 29.6826 30.1444C30.4465 29.7423 30.9617 29.7744 31.3751 30.1807C31.9001 30.7044 31.8388 31.5353 30.959 32.4157C30.5582 32.8164 30.1142 33.093 29.7643 33.2116L29.3119 32.4157C29.5842 32.3396 30.066 32.0875 30.3432 31.8097C30.6316 31.5213 30.6769 31.2923 30.5338 31.1485C30.3878 31.0032 30.2084 31.0493 29.7462 31.2937C28.9153 31.7405 28.3526 31.6638 28.0265 31.33C27.4987 30.8015 27.5909 29.9106 28.3526 29.1489ZM25.7825 31.7461C26.0332 31.4955 26.3271 31.3502 26.6511 31.33C27.0672 31.3035 27.5266 31.4898 27.9902 31.9541L29.6555 33.6103L28.7778 34.4879L27.2306 32.9317C26.8689 32.5707 26.4856 32.4541 26.1714 32.7689C25.9313 33.0084 25.962 33.3164 26.0632 33.5377C26.0953 33.6144 26.1658 33.7038 26.2441 33.782L27.8639 35.4018L26.9953 36.2802L25.0857 34.3706C24.7366 34.0216 24.4259 33.7317 24.1627 33.493L24.9223 32.7417L25.3482 33.0853L25.3664 33.0671C25.2987 32.7739 25.3141 32.2146 25.7825 31.7461ZM22.5512 34.9675C22.9492 34.5696 23.3723 34.4146 23.7822 34.4251C24.3093 34.4384 24.8127 34.7225 25.203 35.1128C25.3552 35.2643 25.4746 35.4165 25.5291 35.5017L23.718 37.2946C24.1061 37.6298 24.6326 37.4482 25.0396 37.0412C25.3054 36.7809 25.5256 36.4779 25.6911 36.1447L26.406 36.6244C26.2343 37.0335 25.9403 37.4343 25.5647 37.81C24.6145 38.7594 23.5148 38.7567 22.6413 37.8825C21.9292 37.1704 21.5821 35.9367 22.5512 34.9675ZM24.1446 35.6735C24.014 35.5415 23.7857 35.392 23.5378 35.3935C23.4528 35.394 23.3687 35.4118 23.291 35.446C23.2131 35.4802 23.1431 35.5301 23.0854 35.5925C22.7167 35.9604 22.9045 36.4492 23.1126 36.7053L24.1446 35.6735ZM20.4161 37.2486L21.3294 36.3256L23.0945 40.1803L22.2168 41.0495L18.3976 39.2663L19.3388 38.3168L21.0215 39.2482C21.3266 39.4165 21.5961 39.5833 21.8635 39.7649L21.8817 39.746C21.6931 39.4716 21.5347 39.2181 21.3566 38.9138L20.4161 37.2486ZM17.0941 40.4337C17.5032 40.0253 17.8949 39.8466 18.2615 39.8277C18.7335 39.8033 19.1678 40.0455 19.5378 40.4156L20.5153 41.3931C20.7827 41.6605 21.0515 41.8999 21.2394 42.027L20.4517 42.8139L20.1264 42.5876L20.1082 42.6058C20.148 43.0121 19.9784 43.4143 19.6467 43.7459C19.0756 44.3171 18.3299 44.2396 17.8816 43.7913C17.1514 43.0611 17.4586 42.0675 18.4521 41.0768L18.4158 41.0405C18.2671 40.8911 17.9704 40.7598 17.5374 41.1941C17.2519 41.4803 17.0452 41.8713 16.9495 42.2532L16.2346 41.8553C16.3393 41.4656 16.5823 40.9462 17.0941 40.4337ZM14.5247 41.5892C14.5652 41.5823 14.6009 41.5767 14.642 41.5746C14.9764 41.5565 15.3172 41.6793 15.6641 42.027C16.1536 42.5157 16.1494 43.2223 15.8994 43.7096L15.9176 43.7278C16.3239 43.5393 16.6856 43.644 17.1485 43.8912C17.3566 44.0015 17.5744 44.1264 17.7783 44.2438C18.1344 44.4476 18.4486 44.6278 18.5966 44.6697L17.7008 45.5654C17.5228 45.5193 17.106 45.3239 16.5062 44.9678C15.9036 44.6047 15.5434 44.6997 15.1398 45.0949L14.832 45.402L16.3435 46.9227L15.4743 47.8004L11.6642 43.9903C11.9155 43.6447 12.289 43.1944 12.8043 42.6777C13.4418 42.0423 13.9815 41.68 14.5059 41.592L14.5247 41.5892ZM19.3297 41.8999L19.0225 41.5927C18.561 42.0487 18.3173 42.5164 18.651 42.8502C18.8766 43.0764 19.1315 43.0394 19.3297 42.8411C19.5434 42.6274 19.5881 42.3 19.4652 42.0627C19.4278 42.0024 19.3822 41.9477 19.3297 41.8999ZM14.8591 42.9954C14.743 42.8723 14.5847 42.7977 14.4158 42.7866C14.1505 42.7727 13.8614 42.9277 13.5829 43.2035C13.3503 43.436 13.1834 43.6259 13.1304 43.7103L14.1987 44.7779L14.6238 44.3519C15.1056 43.8716 15.1942 43.3319 14.8591 42.9954Z" fill="#676F7E"/>
</svg>
