<svg width="43" height="54" viewBox="0 0 43 54" fill="none" xmlns="http://www.w3.org/2000/svg">
<path d="M21.1279 0.0263672C21.3039 -0.00934727 21.4852 -0.00939521 21.6611 0.0263672L32.4297 2.03906C32.4908 2.05634 32.5452 2.09206 32.585 2.1416C32.6248 2.19128 32.6478 2.25285 32.6514 2.31641L33.1582 4.51562L37.3018 5.64258C37.4178 5.66917 37.4451 5.75022 37.4717 5.86621L38.0312 8.17383L42.0684 9.25586C42.1839 9.29216 42.2372 9.37186 42.291 9.5957C42.6286 11.3937 42.7979 13.2275 42.7979 15.0605C42.7978 31.2834 34.3948 45.37 21.8477 53.7676C21.7147 53.8834 21.5636 53.9543 21.3945 53.999C21.2349 53.9543 21.0833 53.8746 20.9502 53.7676C8.40308 45.37 6.642e-05 31.2834 0 15.0605C-0.000550501 13.2272 0.169047 11.3976 0.506836 9.5957C0.559995 9.3728 0.61392 9.28323 0.728516 9.25586L4.75781 8.16504L5.31738 5.85742C5.34458 5.75046 5.371 5.66106 5.48633 5.63379L9.62109 4.50684L10.1279 2.30664C10.1334 2.24243 10.1589 2.18133 10.2002 2.13184C10.2415 2.08242 10.2972 2.04714 10.3594 2.03027L21.1279 0.0263672ZM23.0703 6.5459C23.0489 6.5536 23.0293 6.56641 23.0127 6.58203C22.995 6.59712 22.9814 6.61673 22.9736 6.63867C22.966 6.66058 22.9644 6.68423 22.9688 6.70703V46.3262C22.9689 46.4337 23.0756 46.496 23.1904 46.3809V46.3623C33.7279 36.5599 36.9111 29.2974 36.9111 24.8975C36.911 22.4203 35.9597 20.569 33.4971 19.8896C34.7504 18.485 35.4531 16.6611 35.4531 14.7646C35.4531 10.1954 30.6427 7.0472 23.1377 6.53711C23.115 6.53561 23.0917 6.53824 23.0703 6.5459ZM19.6436 6.53711C18.7003 6.64929 17.7649 6.81999 16.8428 7.04785C16.6118 7.10107 16.5586 7.21678 16.5586 7.44043L16.6729 27.6611C16.6729 30.1923 16.6729 32.2853 16.7891 34.6465C16.789 34.8164 16.6196 34.8692 16.5664 34.6992C14.4944 28.2158 13.5425 20.1035 13.7119 8.3877C13.7118 8.16479 13.6582 8.10206 13.374 8.21875C12.4448 8.62164 11.547 9.09358 10.6885 9.63086C10.5197 9.74762 10.4658 9.85545 10.4658 10.1416C10.2971 18.1991 10.9728 25.1844 12.1465 30.4258L11.5332 30.8184C11.3106 30.9877 11.142 30.9883 10.9727 30.6484C9.00711 26.2576 7.7803 19.55 7.78027 12.3418C7.78027 12.0641 7.61215 11.9488 7.44336 12.1182C6.56896 12.9276 5.74832 13.7933 4.98828 14.7109C4.89639 14.8073 4.82471 14.9214 4.77734 15.0459C4.73001 15.1703 4.70834 15.3035 4.71289 15.4365C4.87269 21.2945 6.7223 29.6291 9.58496 34.6914C9.92374 35.3084 10.3685 35.4772 10.9287 35.084L13.0537 33.752C14.4591 38.4833 16.5221 42.8206 19.6074 46.3711C19.7138 46.4875 19.8298 46.4332 19.8213 46.3262L19.8125 6.70703C19.8215 6.66243 19.8034 6.61825 19.7686 6.58203C19.7329 6.54634 19.6877 6.52864 19.6436 6.53711ZM31.6992 23.0381C32.7664 23.0381 33.4954 23.9415 33.4863 25.5156C33.4863 27.7692 31.868 32.1608 26.1504 38.582V25.8555C29.4579 23.4946 30.5258 23.0382 31.6992 23.0381ZM26.1602 10.2402C29.5745 10.4726 32.1533 12.3334 32.1533 14.5869C32.1533 16.9571 30.4902 19.4868 26.1602 22.0088V10.2402Z" fill="#676F7E"/>
</svg>
