<svg width="145" height="28" viewBox="0 0 145 28" fill="none" xmlns="http://www.w3.org/2000/svg">
<path d="M88.7168 4.53125C89.0228 4.53125 89.3289 4.63326 89.584 4.8877C89.839 5.09125 89.9413 5.39674 89.9414 5.75293C89.9414 6.51648 89.5842 6.92374 88.8701 6.92383C88.105 6.92383 87.7472 6.56799 87.7471 5.85547C87.7471 5.70277 87.7478 5.60082 87.7988 5.49902C87.8498 5.39726 87.9002 5.29516 87.9512 5.14258C87.4923 5.19356 87.237 5.39684 87.084 5.70215C86.9309 6.0076 86.8799 6.46649 86.8799 6.97559C86.8799 7.43343 86.9316 7.78956 86.9316 7.99316C87.7986 8.40036 88.4616 8.96046 88.9717 9.62207C89.4818 10.2838 89.6865 11.0986 89.6865 11.9639C89.6865 13.2875 89.0741 14.4081 87.7988 15.2227C86.6766 15.9862 85.401 16.3935 83.9727 16.3936C82.9523 16.3936 82.0335 16.2411 81.1152 15.8848C80.3504 15.8848 79.7383 15.9859 79.2793 16.2402C78.6671 16.5457 78.3604 17.1065 78.3604 17.8701C78.3606 18.1754 78.6158 18.4302 79.1768 18.6338C79.6869 18.8374 80.7079 18.9385 82.2383 18.9385H84.125C86.0634 18.9385 87.5432 19.1932 88.5635 19.7021C89.8389 20.364 90.4512 21.4337 90.4512 22.9609C90.4511 24.5898 89.89 25.8114 88.7168 26.6768C87.5435 27.5422 86.0641 28.001 84.2275 28.001C82.0339 28.001 80.2483 27.6444 78.9219 26.8809C77.5955 26.1681 76.9326 25.3021 76.9326 24.3857C76.9328 23.775 77.2898 23.2656 78.0039 22.8584C78.5141 22.5531 79.2796 22.2985 80.3506 21.9932C79.3813 21.6368 78.6672 21.2803 78.208 20.873C77.5959 20.3131 77.2383 19.6007 77.2383 18.7354C77.2383 17.819 77.4935 17.0551 78.0547 16.4951C78.6668 15.8334 79.4319 15.5791 80.4521 15.5791C79.7379 15.2227 79.2275 14.7641 78.8193 14.2041C78.4114 13.6442 78.208 12.9315 78.208 12.1172C78.208 10.7428 78.8196 9.52094 80.0947 8.55371C81.268 7.63744 82.5436 7.22958 83.9209 7.22949C84.329 7.22949 84.7889 7.28099 85.248 7.38281C85.707 7.48463 86.1154 7.63735 86.5234 7.79004V7.02637C86.5234 6.00818 86.7269 5.34562 87.084 4.98926C87.4411 4.68382 88.0026 4.53125 88.7168 4.53125ZM84.3291 21.8408C82.2887 21.8408 80.8599 22.0956 80.0947 22.5537C79.4828 22.961 79.126 23.6228 79.126 24.5898C79.126 25.5059 79.3807 26.2186 79.8906 26.6768C80.7579 27.3386 82.2382 27.6953 84.3809 27.6953C85.8601 27.6953 86.9826 27.3901 87.7988 26.7793C88.615 26.1684 89.0224 25.4044 89.0225 24.5391C89.0225 23.47 88.6661 22.7568 88.0029 22.4004C87.3397 22.044 86.1147 21.8408 84.3291 21.8408ZM57.3936 7.53418H61.1689V8.50195H57.3936V17.4111C57.3936 18.582 57.4448 19.3458 57.5469 19.7021C57.7509 20.5164 58.2607 20.9236 58.9746 20.9238C59.8419 20.9238 60.4549 20.4653 60.71 19.498C60.9139 18.8362 61.0156 17.6145 61.0156 15.7822V14.2041H61.3223V15.6797C61.3223 16.1887 61.322 16.6473 61.373 17.1055C61.373 18.6327 61.2194 19.7017 60.8623 20.2617C60.4032 21.0254 59.4341 21.4326 58.0566 21.4326C56.7303 21.4326 55.7606 21.1276 55.1484 20.4658C54.5364 19.8549 54.2305 18.9383 54.2305 17.7676V8.45117H51.6289V8.14551C53.4144 7.68731 54.7917 6.6691 55.71 5.04004C56.4241 3.71649 56.832 2.24029 56.832 0.611328H57.3936V7.53418ZM27.5996 7.07617C29.0277 7.07625 30.201 7.48354 31.1191 8.29785C32.4966 9.51967 33.2109 11.5057 33.2109 14.3057H24.793V14.3564C24.793 16.6981 25.0483 18.4291 25.6094 19.4473C26.1705 20.5163 27.0379 21.0253 28.1602 21.0254C29.3845 21.0254 30.405 20.6182 31.3232 19.8037C32.4455 18.8365 33.0068 17.4621 33.0068 15.7822H33.2617C33.2616 17.4111 32.7519 18.7856 31.6807 19.8037C30.6093 20.8728 29.2316 21.3818 27.4971 21.3818C26.0177 21.3818 24.6909 20.8221 23.5176 19.7021C22.0892 18.3785 21.375 16.6977 21.375 14.5596C21.3751 12.2689 22.0895 10.3853 23.4668 8.95996C24.6912 7.73814 26.0691 7.07617 27.5996 7.07617ZM68.7705 7.12695C70.4029 7.12699 71.6271 7.43307 72.4434 8.04395C73.2085 8.60393 73.5654 9.26557 73.5654 10.0801V17.3096C73.5654 18.633 73.617 19.4475 73.668 19.7529C73.821 20.5163 74.2289 20.8729 74.8408 20.873C75.4019 20.873 75.8105 20.5676 76.0146 20.0078C76.2187 19.3969 76.3203 18.5819 76.3203 17.4619V15.2725H76.7285V16.6982C76.7285 17.1563 76.7283 17.6143 76.7793 18.0215C76.7793 19.2942 76.6264 20.1601 76.3203 20.5674C75.9121 21.1273 75.0961 21.3818 73.9229 21.3818C72.9536 21.3818 72.2902 21.2294 71.8311 20.873C71.2699 20.4658 70.9128 19.8039 70.7598 18.8877C70.3006 19.9566 69.5862 20.6691 68.668 21.0254C68.1068 21.229 67.3928 21.331 66.4746 21.3311C65.5564 21.3311 64.7403 21.1271 64.0771 20.6689C63.1589 20.058 62.6484 19.1925 62.6484 17.9707C62.6485 16.8001 63.1075 15.7822 64.0254 14.9678C64.9437 14.2041 66.0664 13.7454 67.3418 13.6436C68.6678 13.5418 69.5349 13.3383 69.9941 13.1348C70.4022 12.982 70.6064 12.4219 70.6064 11.6074V9.67285C70.6064 8.80739 70.4533 8.19608 70.1982 7.89062C69.943 7.58544 69.331 7.43262 68.4131 7.43262C67.648 7.43262 66.9849 7.58531 66.4238 7.89062C65.8627 8.19605 65.5049 8.55251 65.3008 9.06152C65.4028 9.06152 65.5054 9.01074 65.6074 9.01074C66.0155 9.01078 66.3729 9.16419 66.6279 9.52051C66.8827 9.82582 67.036 10.2327 67.0361 10.6396C67.0361 11.0978 66.8824 11.5051 66.5254 11.8105C66.2194 12.1159 65.8115 12.2694 65.3525 12.2695C65.0464 12.2695 64.791 12.1672 64.5869 12.0654C63.9237 11.6582 63.6172 11.1491 63.6172 10.4873C63.6172 10.1818 63.6682 9.82524 63.8213 9.41797C64.1274 8.55258 64.8929 7.94144 66.1172 7.53418C66.9845 7.22872 67.9032 7.12695 68.7705 7.12695ZM111.164 7.12695C112.797 7.12695 114.022 7.43303 114.838 8.04395C115.603 8.60389 115.96 9.26566 115.96 10.0801V17.3096C115.96 18.633 116.011 19.4475 116.062 19.7529C116.215 20.5165 116.623 20.873 117.235 20.873C117.796 20.873 118.204 20.5674 118.408 20.0078C118.612 19.3969 118.715 18.5819 118.715 17.4619V15.2725H119.123V16.6982C119.123 17.1563 119.123 17.6143 119.174 18.0215C119.174 19.2942 119.021 20.1601 118.715 20.5674C118.307 21.1273 117.491 21.3818 116.317 21.3818C115.348 21.3818 114.685 21.2293 114.226 20.873C113.664 20.4658 113.307 19.8039 113.154 18.8877C112.695 19.9566 111.981 20.669 111.062 21.0254C110.501 21.229 109.787 21.331 108.869 21.3311C107.951 21.3311 107.134 21.1271 106.471 20.6689C105.553 20.058 105.042 19.1924 105.042 17.9707C105.042 16.8 105.502 15.7822 106.42 14.9678C107.338 14.2041 108.461 13.7454 109.736 13.6436C111.062 13.5417 111.93 13.3384 112.389 13.1348C112.797 12.982 113.001 12.4219 113.001 11.6074V9.67285C113.001 8.80739 112.848 8.19608 112.593 7.89062C112.338 7.58535 111.726 7.43266 110.808 7.43262C110.042 7.43262 109.379 7.58517 108.817 7.89062C108.256 8.19602 107.899 8.5526 107.695 9.06152C107.797 9.06152 107.899 9.01088 108.001 9.01074C108.409 9.01074 108.766 9.16414 109.021 9.52051C109.276 9.82585 109.43 10.2326 109.43 10.6396C109.43 11.0977 109.277 11.5051 108.92 11.8105C108.614 12.116 108.205 12.2695 107.746 12.2695C107.44 12.2695 107.185 12.1672 106.981 12.0654C106.318 11.6582 106.012 11.1491 106.012 10.4873C106.012 10.1818 106.063 9.82524 106.216 9.41797C106.522 8.55262 107.287 7.94142 108.512 7.53418C109.379 7.22883 110.297 7.12698 111.164 7.12695ZM44.3838 7.07617C45.761 7.0762 46.8323 7.48346 47.6484 8.34863C48.3116 9.06136 48.6689 9.87647 48.6689 10.8438V19.5488C48.6689 20.007 48.7205 20.2623 48.7715 20.415C48.8227 20.4661 48.9246 20.5674 49.0771 20.6182C49.2302 20.6691 49.5877 20.7196 50.0469 20.7705C50.5059 20.8214 50.965 20.8223 51.373 20.8223V21.127H42.9551V20.8223C43.3122 20.8223 43.7205 20.8214 44.1797 20.7705C44.6388 20.7196 45.0472 20.6184 45.4043 20.5166C45.5572 20.4147 45.6084 20.1086 45.6084 19.5488V11.2002C45.6084 10.1312 45.5056 9.3676 45.3525 8.80762C45.0464 7.89126 44.5367 7.43263 43.7715 7.43262C42.7512 7.43262 41.9345 8.04367 41.3223 9.31641C40.8122 10.2837 40.455 11.5568 40.251 13.084V19.5488C40.251 20.007 40.3025 20.2623 40.3535 20.415C40.4046 20.466 40.5066 20.5673 40.6592 20.6182C40.8122 20.6691 41.1185 20.7196 41.5264 20.7705C41.9345 20.8214 42.3433 20.8223 42.6494 20.8223V21.127H34.2822V20.8223C34.7414 20.8223 35.2518 20.8214 35.7109 20.7705C36.17 20.7196 36.5782 20.6184 36.9863 20.5166C37.1394 20.4148 37.1904 20.1088 37.1904 19.5488V8.95996C37.1904 8.75635 37.1391 8.60376 37.0371 8.50195L36.833 8.19629C36.6286 8.04365 35.761 7.94141 34.333 7.94141V7.63672L40.251 7.12695V11.3018C40.404 10.3856 40.6592 9.52026 41.1182 8.80762C41.7304 7.78943 42.3944 7.27955 43.0576 7.17773C43.7206 7.12684 44.1798 7.07617 44.3838 7.07617ZM70.5557 13.1855C70.3006 13.5418 69.8928 13.7458 69.3828 13.8477C68.8728 13.9494 68.3624 13.9999 67.9033 14.0508C67.2911 14.2035 66.7802 14.5601 66.3721 15.1201C65.913 15.7819 65.709 16.6984 65.709 17.8691C65.709 19.1419 65.8113 20.0076 66.0664 20.4658C66.3215 20.9238 66.7302 21.127 67.2402 21.127C68.0562 21.1268 68.8213 20.771 69.4844 20.1094C70.1986 19.3457 70.5557 18.5308 70.5557 17.5635V13.1855ZM101.522 7.12695C101.93 7.12698 102.39 7.27975 102.849 7.53418C103.308 7.78873 103.665 8.14546 103.818 8.55273C103.971 8.95998 104.073 9.31651 104.073 9.67285C104.073 10.5381 103.716 11.1486 103.002 11.4541C102.849 11.5559 102.594 11.6074 102.288 11.6074C101.829 11.6074 101.471 11.4548 101.165 11.1494C100.859 10.844 100.706 10.3853 100.706 9.77441C100.706 9.36721 100.859 9.01073 101.165 8.60352C101.471 8.19625 101.828 8.0437 102.186 8.14551C102.032 7.68732 101.675 7.43262 101.012 7.43262C100.4 7.43286 99.737 7.89149 99.125 8.80762C98.3088 9.97843 97.9005 11.5053 97.9004 13.3887V19.498C97.9004 19.9558 97.951 20.2105 98.002 20.3633C98.053 20.4142 98.1555 20.5165 98.3086 20.5674C98.7678 20.7201 99.7369 20.8223 101.165 20.8223V21.127H91.5742V20.8223C92.1864 20.8223 92.7985 20.8214 93.3086 20.7705C93.8185 20.7196 94.2777 20.6184 94.6348 20.5166C94.7878 20.4148 94.8389 20.1088 94.8389 19.5488V9.31641C94.8389 8.85853 94.7884 8.60391 94.6865 8.50195C94.5336 8.29848 94.3804 8.14576 94.2783 8.09473C93.8702 7.99291 93.0027 7.94141 91.5742 7.94141V7.63672L97.9004 7.12695V11.3018C98.0024 10.3856 98.3084 9.57122 98.8184 8.75684C99.5326 7.68774 100.451 7.12695 101.522 7.12695ZM112.899 13.1855C112.644 13.5419 112.236 13.7458 111.726 13.8477C111.215 13.9495 110.705 13.9999 110.246 14.0508C109.634 14.2035 109.124 14.5601 108.716 15.1201C108.257 15.7819 108.053 16.6982 108.053 17.8691C108.053 19.1419 108.154 20.0076 108.409 20.4658C108.664 20.9239 109.073 21.127 109.583 21.127C110.399 21.1269 111.164 20.771 111.827 20.1094C112.592 19.3457 112.899 18.5308 112.899 17.5635V13.1855ZM137.591 7.02539C138.917 7.02549 140.04 7.43251 140.805 8.29785C141.468 9.01058 141.824 9.82569 141.824 10.793V19.498C141.824 19.9051 141.876 20.2105 141.927 20.3125C141.978 20.4143 142.08 20.4657 142.232 20.5674C142.385 20.6183 142.692 20.6688 143.1 20.7197C143.508 20.7706 143.866 20.7705 144.172 20.7705V21.0762H136.417V20.7705C136.927 20.7705 137.336 20.7706 137.642 20.7197C137.948 20.6688 138.254 20.5677 138.56 20.415C138.713 20.3132 138.764 20.0071 138.764 19.498V11.2002C138.764 10.1822 138.662 9.36761 138.509 8.80762C138.203 7.89141 137.693 7.43277 136.979 7.43262C136.213 7.43262 135.549 7.78922 135.039 8.50195C134.478 9.31654 134.019 10.7929 133.713 12.9307V19.498C133.713 19.9559 133.764 20.2105 133.815 20.3633C133.866 20.4142 133.968 20.4656 134.121 20.5674C134.274 20.6183 134.529 20.6688 134.938 20.7197C135.346 20.7706 135.703 20.8222 136.06 20.8223V21.127H128.255V20.8223C129.071 20.8222 129.734 20.771 130.193 20.5674L130.448 20.4658C130.601 20.364 130.652 20.058 130.652 19.498V11.2002C130.652 10.1314 130.55 9.36758 130.397 8.80762C130.091 7.89125 129.581 7.43262 128.815 7.43262C127.846 7.43268 127.081 8.04374 126.52 9.31641C126.162 10.1819 125.856 11.455 125.652 13.084V19.5488C125.652 20.007 125.704 20.2623 125.755 20.415C125.806 20.466 125.908 20.5673 126.061 20.6182C126.214 20.6691 126.52 20.7196 126.928 20.7705C127.336 20.8214 127.693 20.8223 127.999 20.8223V21.127H119.633V20.8223C120.092 20.8223 120.551 20.8214 121.01 20.7705C121.469 20.7196 121.877 20.6184 122.285 20.5166C122.438 20.4148 122.489 20.1088 122.489 19.5488V9.01074C122.489 8.80731 122.439 8.65452 122.337 8.55273C122.184 8.34926 122.031 8.19654 121.929 8.14551C121.623 8.04369 120.857 7.99316 119.684 7.99316V7.6875L125.602 7.12695V11.3018C125.755 10.2329 126.009 9.41847 126.315 8.80762C126.826 7.78943 127.591 7.22877 128.561 7.12695C128.765 7.12695 128.969 7.07617 129.122 7.07617H129.479C130.907 7.07617 131.927 7.48364 132.692 8.24707C133.305 9.01071 133.662 9.92772 133.662 11.0986C133.815 10.0804 134.071 9.31599 134.428 8.70508C134.989 7.78902 135.703 7.22879 136.672 7.12695C136.825 7.12695 136.979 7.12708 137.183 7.07617C137.386 7.0761 137.489 7.02539 137.591 7.02539ZM12.7539 0C15.3557 0 17.3963 0.611313 18.9268 1.78223C20.3551 2.90222 21.0693 4.37824 21.0693 6.21094C21.0693 7.43272 20.5088 8.60391 19.4375 9.62207C18.0601 10.8947 16.2233 11.5058 13.9277 11.5059H8.87695V18.9385C8.87697 19.5493 8.92825 19.9565 9.03027 20.1602C9.08141 20.2619 9.23438 20.3642 9.48926 20.415C9.74447 20.5168 10.2547 20.6181 11.0195 20.6689C11.7848 20.7199 12.8562 20.7705 14.1826 20.7705V21.0762H0V20.7705C1.12235 20.7705 2.04066 20.7199 2.75488 20.6689C3.46899 20.618 3.97926 20.5168 4.23438 20.415C4.48929 20.3133 4.64224 20.2111 4.69336 20.1602C4.79538 20.0074 4.84667 19.6002 4.84668 18.9385V2.08691C4.84666 1.47623 4.79537 1.11961 4.69336 0.916016C4.64229 0.814414 4.53996 0.76382 4.28516 0.662109C3.67293 0.40758 2.19362 0.305664 0 0.305664V0H12.7539ZM83.9209 7.48438C82.9518 7.48449 82.2374 7.89175 81.7783 8.65527C81.3193 9.41889 81.1152 10.488 81.1152 11.8115C81.1152 13.3388 81.3196 14.4593 81.6768 15.1211C82.0339 15.7826 82.799 16.0878 83.9209 16.0879C84.9412 16.0879 85.6053 15.7312 86.0645 15.0693C86.5234 14.3566 86.7275 13.2876 86.7275 11.8115C86.7275 10.437 86.5231 9.36787 86.166 8.70605C85.7579 7.89152 84.9922 7.48438 83.9209 7.48438ZM28.0078 7.4834C26.8346 7.4834 25.967 7.99267 25.5078 9.06152C24.9977 10.1306 24.793 11.76 24.793 14H30.4053C30.4053 11.862 30.2008 10.284 29.8438 9.16406C29.4867 8.04426 28.8748 7.4836 28.0078 7.4834ZM10.3564 0.305664C9.89732 0.305664 9.54001 0.356319 9.33594 0.407227C9.1319 0.45813 8.97877 0.610853 8.92773 0.814453C8.92773 1.01805 8.87697 1.42531 8.87695 2.08691V11.251H12.1924C14.0289 11.251 15.3043 10.7924 16.0186 9.8252C16.6307 9.01065 16.9375 7.73788 16.9375 5.95605C16.9375 4.07258 16.5291 2.69769 15.7129 1.73047C14.8966 0.763381 13.6719 0.305664 11.9375 0.305664H10.3564Z" fill="#676F7E"/>
</svg>
