<svg width="114" height="24" viewBox="0 0 114 24" fill="none" xmlns="http://www.w3.org/2000/svg">
<path d="M11.8359 0.00976562C13.6556 0.0523658 15.442 0.508981 17.0596 1.3457C18.6773 2.18253 20.0845 3.37756 21.1738 4.83984L16.7822 7.65234C16.3757 7.01612 14.7995 4.4621 11.6973 4.46191C8.28731 4.46191 6.00684 7.44426 6.00684 12.0459C6.00696 16.1703 7.90085 19.9365 11.6973 19.9365C15.4936 19.9363 16.9507 16.4582 16.9805 14.4805H11.8955V10.7637H22.1748V23.4551H18.0215L17.7432 21.1094L17.7041 21.0996C17.3968 21.4475 15.7212 23.8431 11.3398 23.9922C4.95625 24.2306 6.24128e-05 19.3802 0 11.8369C0 4.29341 5.3828 -0.238703 11.8359 0.00976562ZM91.7422 6.38086C96.847 6.38104 100.227 10.3566 99.6123 16.7471H89.0459C89.0471 17.2602 89.1558 17.7672 89.3652 18.2354C89.5747 18.7036 89.8803 19.1227 90.2617 19.4648C90.6431 19.8068 91.0919 20.065 91.5791 20.2217C92.0663 20.3784 92.5812 20.4307 93.0898 20.375C94.5581 20.3232 95.9845 19.8689 97.2139 19.0625L98.9082 22.4316C96.8646 23.4941 94.5886 24.0275 92.2871 23.9824C86.7758 23.9725 83.5441 20.494 83.5439 15.1074C83.5439 9.70075 87.1031 6.38086 91.7422 6.38086ZM66.9805 6.38086C69.2895 6.32653 71.5787 6.82061 73.6611 7.82227L72.1445 11.3008C70.892 10.5116 69.4505 10.075 67.9717 10.0381C66.495 10.0381 65.8606 10.6444 65.8604 11.3896C65.8604 12.3834 66.7123 12.682 68.4863 13.2285C73.0063 14.6099 74.0575 16.4885 74.0576 18.6152C74.0576 21.3881 71.6782 23.9824 66.2461 23.9824L65.7822 23.9766C63.6089 23.9672 61.4603 23.4988 59.4766 22.6006L61.0918 19.0029C62.4529 19.8246 64.0045 20.2773 65.5928 20.3154C67.5056 20.3153 68.2783 19.6189 68.2783 18.9033C68.2781 18.188 67.713 17.8108 66.0381 17.2842C62.4102 16.1413 60.3488 14.6301 60.3486 11.6885C60.3486 8.99508 62.5396 6.38086 66.9805 6.38086ZM32.4541 6.38086C37.5591 6.38086 40.9398 10.3565 40.3252 16.7471H29.7383C29.7394 17.2601 29.8482 17.7672 30.0576 18.2354C30.2671 18.7036 30.5727 19.1227 30.9541 19.4648C31.3355 19.8069 31.7843 20.0649 32.2715 20.2217C32.7587 20.3784 33.2736 20.4307 33.7822 20.375C35.2503 20.3227 36.6766 19.8685 37.9062 19.0625L39.6504 22.4219C37.6101 23.4835 35.3373 24.0169 33.0391 23.9727C27.4783 23.9726 24.257 20.494 24.2568 15.1074C24.2568 9.70082 27.8151 6.38095 32.4541 6.38086ZM111.567 6.4502C112.081 6.4497 112.594 6.50956 113.094 6.62891L112.311 11.1904C111.665 11.0047 110.999 10.9017 110.328 10.8828C109.686 10.8921 109.053 11.0457 108.479 11.333C107.904 11.6203 107.401 12.0335 107.007 12.542V23.4746H101.585V6.88672H106.858V9.04395C107.326 8.21627 108.014 7.53525 108.846 7.07715C109.677 6.61905 110.62 6.40219 111.567 6.4502ZM52.1113 6.37012C52.8843 6.33134 53.6571 6.45549 54.3789 6.73535C55.1007 7.01522 55.7559 7.44504 56.3018 7.99512C56.8474 8.54507 57.2715 9.20382 57.5469 9.92871C57.8223 10.6539 57.943 11.4293 57.9004 12.2041V23.4551H52.4775V12.9893C52.5151 12.6875 52.4838 12.3811 52.3848 12.0938C52.2857 11.8063 52.1217 11.5451 51.9062 11.3311C51.6908 11.117 51.4291 10.9552 51.1416 10.8584C50.8542 10.7617 50.5485 10.7332 50.248 10.7734C49.332 10.8921 48.4842 11.3231 47.8486 11.9951V23.4551H42.417V6.88672H47.6904V8.9541C48.1755 8.20776 48.8281 7.58535 49.5957 7.13672C50.3632 6.68818 51.2247 6.42552 52.1113 6.37012ZM81.7002 23.4551H76.2773V0.138672H81.7002V23.4551ZM32.583 9.98828C30.7593 9.98837 29.7384 11.5786 29.7383 13.4072L35.3984 13.417C35.3983 11.4891 34.4068 9.98828 32.583 9.98828ZM91.8809 9.98828C90.0571 9.98828 89.0753 11.5884 89.0752 13.417H94.6963C94.6961 11.4892 93.7045 9.98841 91.8809 9.98828Z" fill="#676F7E"/>
</svg>
