<svg width="69" height="24" viewBox="0 0 69 24" fill="none" xmlns="http://www.w3.org/2000/svg">
<path d="M3.53223 14.5615C3.53223 15.5054 3.67814 16.3653 3.96973 17.1406C4.26125 17.9158 4.66495 18.5785 5.18066 19.1289C5.69654 19.6795 6.3082 20.1014 7.01465 20.3936C7.7211 20.6856 8.48956 20.8311 9.31934 20.8311C10.1267 20.831 10.8834 20.6793 11.5898 20.376C12.2963 20.0726 12.9134 19.6462 13.4404 19.0957C13.9674 18.5452 14.3764 17.8879 14.668 17.124C14.9596 16.36 15.1055 15.5054 15.1055 14.5615V0H18.6377V23.5957H15.1396V21.4043C14.3547 22.2357 13.4286 22.8766 12.3633 23.3262C11.298 23.7754 10.1484 24 8.91504 24C7.65909 24 6.48715 23.7809 5.39941 23.3428C4.31173 22.9046 3.36936 22.2807 2.57324 21.4717C1.77731 20.6628 1.14913 19.6913 0.689453 18.5566C0.22963 17.4218 0 16.157 0 14.7637V0H3.53223V14.5615ZM24.7266 8.5957C25.5115 7.8092 26.4205 7.18533 27.4521 6.72461C28.4838 6.26393 29.6054 6.03418 30.8164 6.03418C32.0723 6.0342 33.2497 6.26938 34.3486 6.74121C35.4476 7.2131 36.4006 7.85408 37.208 8.66309C38.0155 9.47212 38.655 10.4272 39.126 11.5283C39.5969 12.6294 39.832 13.7983 39.832 15.0342C39.832 16.2699 39.5969 17.4327 39.126 18.5225C38.655 19.6124 38.0155 20.5622 37.208 21.3711C36.4006 22.18 35.4475 22.8202 34.3486 23.292C33.2496 23.7639 32.0723 24 30.8164 24C29.6053 24 28.4784 23.7693 27.4355 23.3086C26.3927 22.848 25.4783 22.2249 24.6934 21.4385V23.5957H21.3291V0H24.7266V8.5957ZM49.8916 6.06738C51.1251 6.06741 52.2691 6.29186 53.3232 6.74121C54.3772 7.19065 55.2853 7.8146 56.0479 8.6123C56.8104 9.40992 57.405 10.3536 57.8311 11.4434C58.2572 12.5333 58.4697 13.7191 58.4697 15V16.1123H44.5088C44.621 16.8089 44.8452 17.4554 45.1816 18.0508C45.5181 18.6461 45.9388 19.1625 46.4434 19.6006C46.948 20.0389 47.52 20.3818 48.1592 20.6289C48.7983 20.876 49.4767 21 50.1943 21C52.2353 21 53.8837 20.1571 55.1396 18.4717L57.5957 20.292C56.7435 21.4379 55.6894 22.3366 54.4336 22.9883C53.1776 23.6399 51.7643 23.9658 50.1943 23.9658C48.9159 23.9658 47.7215 23.7414 46.6113 23.292C45.5011 22.8426 44.5364 22.2133 43.7178 21.4043C42.8992 20.5953 42.2542 19.6454 41.7832 18.5557C41.3124 17.466 41.0772 16.2806 41.0771 15C41.077 13.7866 41.3015 12.6402 41.75 11.5615C42.1985 10.483 42.8157 9.53403 43.6006 8.71387C44.3855 7.89366 45.316 7.24729 46.3926 6.77539C47.4691 6.30349 48.6356 6.06738 49.8916 6.06738ZM69 9.43848H67.5869C66.4655 9.43855 65.5458 9.83166 64.8281 10.6182C64.1105 11.4047 63.751 12.472 63.751 13.8203V23.5957H60.3535V6.4043H63.7178V8.52832C64.1439 7.83169 64.6988 7.28045 65.3828 6.87598C66.0669 6.47142 66.8802 6.26953 67.8223 6.26953H69V9.43848ZM30.5811 9.06738C29.7737 9.06738 29.0107 9.21905 28.293 9.52246C27.5754 9.82583 26.9475 10.247 26.4092 10.7861C25.871 11.3255 25.4449 11.9611 25.1309 12.6914C24.817 13.4217 24.6602 14.2028 24.6602 15.0342C24.6601 15.8655 24.8116 16.6404 25.1143 17.3594C25.417 18.0784 25.8369 18.7078 26.375 19.2471C26.9133 19.7864 27.5421 20.2137 28.2598 20.5283C28.9774 20.8428 29.7513 21 30.5811 21C31.3883 21 32.1506 20.8428 32.8682 20.5283C33.5858 20.2137 34.2082 19.7864 34.7354 19.2471C35.2624 18.7078 35.6831 18.0785 35.9971 17.3594C36.311 16.6404 36.4677 15.8655 36.4678 15.0342C36.4678 14.2028 36.311 13.4217 35.9971 12.6914C35.6831 11.9611 35.2624 11.3255 34.7354 10.7861C34.2083 10.247 33.5858 9.82573 32.8682 9.52246C32.1506 9.21923 31.3882 9.06741 30.5811 9.06738ZM49.8242 9.0332C48.5458 9.0332 47.4298 9.43277 46.4766 10.2305C45.5235 11.0282 44.8901 12.0903 44.5762 13.416H55.0391C54.7475 12.0903 54.1249 11.0282 53.1719 10.2305C52.2187 9.43279 51.1026 9.03322 49.8242 9.0332Z" fill="#676F7E"/>
</svg>
