<svg width="74" height="28" viewBox="0 0 74 28" fill="none" xmlns="http://www.w3.org/2000/svg">
<path fill-rule="evenodd" clip-rule="evenodd" d="M16.7483 10.7571C16.7483 15.5779 14.2433 19.3896 10.4708 19.3896C6.78349 19.3896 4.13823 15.7408 4.13823 10.7021C4.13823 5.88127 6.64321 2.06952 10.415 2.06952C14.1023 2.06952 16.7483 5.71905 16.7483 10.7578V10.7571ZM20.8858 10.6213C20.8858 5.20239 16.6066 0.898984 10.4708 0.898984C4.81314 0.898984 0 4.82078 0 10.8371C0 16.2567 4.27851 20.5602 10.415 20.5602C16.072 20.5602 20.8858 16.6405 20.8858 10.6213ZM30.0047 12.5808C30.0047 14.4874 29.1043 16.1217 27.6972 16.1217C26.346 16.1217 25.2767 14.6782 25.2767 12.4722C25.2767 10.5927 26.1771 8.93196 27.6128 8.93196C28.9354 8.93196 30.0047 10.3755 30.0047 12.5808ZM39.578 5.09305C39.578 3.731 38.3112 2.72339 35.9744 2.72339C32.7659 2.72339 30.2888 4.73932 30.2888 7.81645C30.2888 8.06156 30.3174 8.25236 30.3174 8.44316C29.4842 8.11295 28.595 7.94649 27.6986 7.95294C25.1665 7.95294 22.1261 9.45077 22.1261 12.6923C22.1436 13.4657 22.3755 14.2192 22.796 14.869C23.2209 15.5244 23.8161 16.0522 24.518 16.3961C22.2664 16.6955 20.9717 17.8668 20.9717 19.6912C20.9717 21.5435 22.4919 22.8784 25.3347 22.5511L29.4443 22.0608C31.4998 21.8164 32.1747 22.5232 32.1747 23.5587C32.1747 25.3566 30.4298 26.8002 27.6428 26.8002C25.4191 26.8002 24.6025 26.037 24.6025 24.9479C24.6025 24.7842 24.6311 24.5663 24.6311 24.4033C24.6414 24.256 24.6204 24.1081 24.5696 23.9693C24.5188 23.8305 24.4393 23.704 24.3362 23.598C24.2319 23.4907 24.1071 23.4055 23.9691 23.3473C23.8312 23.2891 23.683 23.2592 23.5332 23.2593C23.3577 23.2543 23.1832 23.2861 23.0207 23.3526C22.8582 23.4191 22.7115 23.5187 22.5899 23.6451C22.4698 23.77 22.3786 23.9196 22.3227 24.0834C22.2668 24.2473 22.2476 24.4214 22.2664 24.5934C22.2664 26.3914 24.0399 28 27.6715 28C31.7524 28 34.3419 25.4395 34.3419 22.4982C34.3419 20.1557 32.4001 18.8758 29.7255 19.2031L25.0248 19.7748C23.4767 19.9649 22.9986 19.4747 22.9986 18.7122C22.9986 17.8132 24.012 17.1057 27.5305 17.1057H27.5863C30.1485 17.1057 33.1602 15.6079 33.1602 12.3664C33.1619 11.3365 32.7578 10.3472 32.0351 9.61227C31.7808 9.08739 31.6646 8.5065 31.6973 7.92435C31.6973 5.52754 33.3857 4.1662 35.1306 4.1662C35.8627 4.1662 36.0853 4.27482 36.0853 4.76576C36.0853 4.90154 36.0574 5.01016 36.0574 5.17309C36.081 5.62115 36.2829 6.04206 36.6185 6.34648C36.9575 6.65201 37.4009 6.81598 37.8574 6.80455C38.3136 6.79505 38.7487 6.61084 39.0727 6.29003C39.3926 5.973 39.5738 5.54238 39.5766 5.09234L39.578 5.09305ZM48.3025 19.3896L46.9226 19.2538C46.8231 19.2432 46.7317 19.1942 46.6678 19.1173C46.6366 19.0798 46.6133 19.0365 46.599 18.9899C46.5847 18.9433 46.5799 18.8943 46.5848 18.8458V0L41.6306 1.22556V1.79725L43.0384 2.23317C43.1358 2.26413 43.2198 2.3271 43.2768 2.41182C43.3328 2.49553 43.3581 2.59602 43.3483 2.69624V18.7636C43.3454 18.8389 43.3265 18.9127 43.2929 18.9802C43.2594 19.0477 43.2119 19.1073 43.1537 19.1552C43.0951 19.2042 43.0271 19.2407 42.9538 19.2624C42.8806 19.2842 42.8037 19.2907 42.7278 19.2817L41.4718 19.306L40.1384 19.2817C40.0625 19.2903 39.9857 19.2835 39.9126 19.2617C39.8394 19.24 39.7714 19.2038 39.7125 19.1552C39.6548 19.1069 39.6076 19.0472 39.5741 18.9798C39.5406 18.9124 39.5215 18.8388 39.5179 18.7636V7.89863L34.5652 9.1249V9.69659L35.9722 10.1325C36.0694 10.1636 36.1531 10.2266 36.2099 10.3112C36.2659 10.3949 36.2912 10.4954 36.2814 10.5956V18.8465C36.2864 18.895 36.2817 18.9439 36.2676 18.9905C36.2535 19.0372 36.2302 19.0805 36.1991 19.1181C36.1351 19.1947 36.0437 19.2434 35.9443 19.2538L34.7906 19.391V20.2629H48.3018L48.3025 19.3896ZM74 9.20494V8.3617H69.1861V9.17778L70.312 9.39574C70.7056 9.47721 70.8187 9.77735 70.5653 10.3748L67.9766 16.4218C67.8635 16.6669 67.7225 16.6669 67.6381 16.4218L65.2175 10.3755C64.9642 9.74948 65.1052 9.47721 65.4988 9.39574L66.6246 9.17778V8.36098H56.6047V9.17778L57.7312 9.39574C58.1249 9.47721 58.2659 9.77735 58.0118 10.3748L55.5068 16.7484C55.3944 16.9935 55.2542 16.9935 55.1697 16.7484L52.6361 10.3755C52.4114 9.74948 52.523 9.47721 52.9174 9.39574L54.0432 9.17778V8.36098H47.682V9.20494L48.3025 9.34072C48.4929 9.37073 48.6718 9.44934 48.8199 9.56939C48.9681 9.68873 49.0812 9.84523 49.147 10.0225L53.4534 20.2629H55.3959L59.703 10.0225C59.9277 9.47721 60.1804 9.25925 60.6313 9.25925H60.8002C60.9993 9.25467 61.1942 9.31709 61.3534 9.43648C61.511 9.55402 61.6235 9.72202 61.6719 9.91241L66.1759 20.5337L64.9656 23.3114C64.1776 25.1637 63.5864 25.491 62.8543 25.491C62.5451 25.491 62.2066 25.436 61.8695 25.436C61.6925 25.424 61.5149 25.4472 61.3469 25.5042C61.179 25.5613 61.024 25.651 60.8911 25.7683C60.7599 25.8847 60.654 26.0268 60.5797 26.1856C60.506 26.3435 60.4652 26.515 60.4617 26.6887C60.4617 27.4247 61.0822 27.9421 62.0663 27.9421C63.4741 27.9421 64.8532 26.8523 66.007 24.2376L72.1434 10.3212C72.2353 10.0566 72.3994 9.82289 72.6173 9.64657C72.8355 9.46935 73.1004 9.35358 73.3816 9.31356L74 9.20494Z" fill="#676F7E"/>
</svg>
